<?xml version="1.0" encoding="utf-8" ?>
<svg baseProfile="full" height="100%" version="1.1" width="100%" xmlns="http://www.w3.org/2000/svg" xmlns:ev="http://www.w3.org/2001/xml-events" xmlns:xlink="http://www.w3.org/1999/xlink"><defs /><line stroke="rgb(10%,10%,16%)" x1="100.0" x2="100.0" y1="100.0" y2="1000.0" /><line stroke="rgb(10%,10%,16%)" x1="145.0" x2="145.0" y1="100.0" y2="1000.0" /><line stroke="rgb(10%,10%,16%)" x1="190.0" x2="190.0" y1="100.0" y2="1000.0" /><line stroke="rgb(10%,10%,16%)" x1="235.0" x2="235.0" y1="100.0" y2="1000.0" /><line stroke="rgb(10%,10%,16%)" x1="280.0" x2="280.0" y1="100.0" y2="1000.0" /><line stroke="rgb(10%,10%,16%)" x1="325.0" x2="325.0" y1="100.0" y2="1000.0" /><line stroke="rgb(10%,10%,16%)" x1="370.0" x2="370.0" y1="100.0" y2="1000.0" /><line stroke="rgb(10%,10%,16%)" x1="415.0" x2="415.0" y1="100.0" y2="1000.0" /><line stroke="rgb(10%,10%,16%)" x1="460.0" x2="460.0" y1="100.0" y2="1000.0" /><line stroke="rgb(10%,10%,16%)" x1="505.0" x2="505.0" y1="100.0" y2="1000.0" /><line stroke="rgb(10%,10%,16%)" x1="550.0" x2="550.0" y1="100.0" y2="1000.0" /><line stroke="rgb(10%,10%,16%)" x1="595.0" x2="595.0" y1="100.0" y2="1000.0" /><line stroke="rgb(10%,10%,16%)" x1="640.0" x2="640.0" y1="100.0" y2="1000.0" /><line stroke="rgb(10%,10%,16%)" x1="685.0" x2="685.0" y1="100.0" y2="1000.0" /><line stroke="rgb(10%,10%,16%)" x1="730.0" x2="730.0" y1="100.0" y2="1000.0" /><line stroke="rgb(10%,10%,16%)" x1="775.0" x2="775.0" y1="100.0" y2="1000.0" /><line stroke="rgb(10%,10%,16%)" x1="820.0" x2="820.0" y1="100.0" y2="1000.0" /><line stroke="rgb(10%,10%,16%)" x1="865.0" x2="865.0" y1="100.0" y2="1000.0" /><line stroke="rgb(10%,10%,16%)" x1="910.0" x2="910.0" y1="100.0" y2="1000.0" /><line stroke="rgb(10%,10%,16%)" x1="955.0" x2="955.0" y1="100.0" y2="1000.0" /><line stroke="rgb(10%,10%,16%)" x1="1000.0" x2="1000.0" y1="100.0" y2="1000.0" /><line stroke="rgb(10%,10%,16%)" x1="100.0" x2="1000.0" y1="100.0" y2="100.0" /><line stroke="rgb(10%,10%,16%)" x1="100.0" x2="1000.0" y1="145.0" y2="145.0" /><line stroke="rgb(10%,10%,16%)" x1="100.0" x2="1000.0" y1="190.0" y2="190.0" /><line stroke="rgb(10%,10%,16%)" x1="100.0" x2="1000.0" y1="235.0" y2="235.0" /><line stroke="rgb(10%,10%,16%)" x1="100.0" x2="1000.0" y1="280.0" y2="280.0" /><line stroke="rgb(10%,10%,16%)" x1="100.0" x2="1000.0" y1="325.0" y2="325.0" /><line stroke="rgb(10%,10%,16%)" x1="100.0" x2="1000.0" y1="370.0" y2="370.0" /><line stroke="rgb(10%,10%,16%)" x1="100.0" x2="1000.0" y1="415.0" y2="415.0" /><line stroke="rgb(10%,10%,16%)" x1="100.0" x2="1000.0" y1="460.0" y2="460.0" /><line stroke="rgb(10%,10%,16%)" x1="100.0" x2="1000.0" y1="505.0" y2="505.0" /><line stroke="rgb(10%,10%,16%)" x1="100.0" x2="1000.0" y1="550.0" y2="550.0" /><line stroke="rgb(10%,10%,16%)" x1="100.0" x2="1000.0" y1="595.0" y2="595.0" /><line stroke="rgb(10%,10%,16%)" x1="100.0" x2="1000.0" y1="640.0" y2="640.0" /><line stroke="rgb(10%,10%,16%)" x1="100.0" x2="1000.0" y1="685.0" y2="685.0" /><line stroke="rgb(10%,10%,16%)" x1="100.0" x2="1000.0" y1="730.0" y2="730.0" /><line stroke="rgb(10%,10%,16%)" x1="100.0" x2="1000.0" y1="775.0" y2="775.0" /><line stroke="rgb(10%,10%,16%)" x1="100.0" x2="1000.0" y1="820.0" y2="820.0" /><line stroke="rgb(10%,10%,16%)" x1="100.0" x2="1000.0" y1="865.0" y2="865.0" /><line stroke="rgb(10%,10%,16%)" x1="100.0" x2="1000.0" y1="910.0" y2="910.0" /><line stroke="rgb(10%,10%,16%)" x1="100.0" x2="1000.0" y1="955.0" y2="955.0" /><line stroke="rgb(10%,10%,16%)" x1="100.0" x2="1000.0" y1="1000.0" y2="1000.0" /><text fill="rgb(0,0,0)" font-size="32" stroke-width="1" x="111.25" y="100.0">A</text><text fill="rgb(0,0,0)" font-size="32" stroke-width="1" x="55.0" y="132.14285714285714">1</text><text fill="rgb(0,0,0)" font-size="32" stroke-width="1" x="111.25" y="1022.5">A</text><text fill="rgb(0,0,0)" font-size="32" stroke-width="1" x="1022.5" y="132.14285714285714">1</text><text fill="rgb(0,0,0)" font-size="32" stroke-width="1" x="156.25" y="100.0">B</text><text fill="rgb(0,0,0)" font-size="32" stroke-width="1" x="55.0" y="177.14285714285714">2</text><text fill="rgb(0,0,0)" font-size="32" stroke-width="1" x="156.25" y="1022.5">B</text><text fill="rgb(0,0,0)" font-size="32" stroke-width="1" x="1022.5" y="177.14285714285714">2</text><text fill="rgb(0,0,0)" font-size="32" stroke-width="1" x="201.25" y="100.0">C</text><text fill="rgb(0,0,0)" font-size="32" stroke-width="1" x="55.0" y="222.14285714285714">3</text><text fill="rgb(0,0,0)" font-size="32" stroke-width="1" x="201.25" y="1022.5">C</text><text fill="rgb(0,0,0)" font-size="32" stroke-width="1" x="1022.5" y="222.14285714285714">3</text><text fill="rgb(0,0,0)" font-size="32" stroke-width="1" x="246.25" y="100.0">D</text><text fill="rgb(0,0,0)" font-size="32" stroke-width="1" x="55.0" y="267.1428571428571">4</text><text fill="rgb(0,0,0)" font-size="32" stroke-width="1" x="246.25" y="1022.5">D</text><text fill="rgb(0,0,0)" font-size="32" stroke-width="1" x="1022.5" y="267.1428571428571">4</text><text fill="rgb(0,0,0)" font-size="32" stroke-width="1" x="291.25" y="100.0">E</text><text fill="rgb(0,0,0)" font-size="32" stroke-width="1" x="55.0" y="312.1428571428571">5</text><text fill="rgb(0,0,0)" font-size="32" stroke-width="1" x="291.25" y="1022.5">E</text><text fill="rgb(0,0,0)" font-size="32" stroke-width="1" x="1022.5" y="312.1428571428571">5</text><text fill="rgb(0,0,0)" font-size="32" stroke-width="1" x="336.25" y="100.0">F</text><text fill="rgb(0,0,0)" font-size="32" stroke-width="1" x="55.0" y="357.1428571428571">6</text><text fill="rgb(0,0,0)" font-size="32" stroke-width="1" x="336.25" y="1022.5">F</text><text fill="rgb(0,0,0)" font-size="32" stroke-width="1" x="1022.5" y="357.1428571428571">6</text><text fill="rgb(0,0,0)" font-size="32" stroke-width="1" x="381.25" y="100.0">G</text><text fill="rgb(0,0,0)" font-size="32" stroke-width="1" x="55.0" y="402.1428571428571">7</text><text fill="rgb(0,0,0)" font-size="32" stroke-width="1" x="381.25" y="1022.5">G</text><text fill="rgb(0,0,0)" font-size="32" stroke-width="1" x="1022.5" y="402.1428571428571">7</text><text fill="rgb(0,0,0)" font-size="32" stroke-width="1" x="426.25" y="100.0">H</text><text fill="rgb(0,0,0)" font-size="32" stroke-width="1" x="55.0" y="447.1428571428571">8</text><text fill="rgb(0,0,0)" font-size="32" stroke-width="1" x="426.25" y="1022.5">H</text><text fill="rgb(0,0,0)" font-size="32" stroke-width="1" x="1022.5" y="447.1428571428571">8</text><text fill="rgb(0,0,0)" font-size="32" stroke-width="1" x="471.25" y="100.0">I</text><text fill="rgb(0,0,0)" font-size="32" stroke-width="1" x="55.0" y="492.1428571428571">9</text><text fill="rgb(0,0,0)" font-size="32" stroke-width="1" x="471.25" y="1022.5">I</text><text fill="rgb(0,0,0)" font-size="32" stroke-width="1" x="1022.5" y="492.1428571428571">9</text><text fill="rgb(0,0,0)" font-size="32" stroke-width="1" x="516.25" y="100.0">J</text><text fill="rgb(0,0,0)" font-size="32" stroke-width="1" x="55.0" y="537.1428571428571">10</text><text fill="rgb(0,0,0)" font-size="32" stroke-width="1" x="516.25" y="1022.5">J</text><text fill="rgb(0,0,0)" font-size="32" stroke-width="1" x="1022.5" y="537.1428571428571">10</text><text fill="rgb(0,0,0)" font-size="32" stroke-width="1" x="561.25" y="100.0">K</text><text fill="rgb(0,0,0)" font-size="32" stroke-width="1" x="55.0" y="582.1428571428571">11</text><text fill="rgb(0,0,0)" font-size="32" stroke-width="1" x="561.25" y="1022.5">K</text><text fill="rgb(0,0,0)" font-size="32" stroke-width="1" x="1022.5" y="582.1428571428571">11</text><text fill="rgb(0,0,0)" font-size="32" stroke-width="1" x="606.25" y="100.0">L</text><text fill="rgb(0,0,0)" font-size="32" stroke-width="1" x="55.0" y="627.1428571428571">12</text><text fill="rgb(0,0,0)" font-size="32" stroke-width="1" x="606.25" y="1022.5">L</text><text fill="rgb(0,0,0)" font-size="32" stroke-width="1" x="1022.5" y="627.1428571428571">12</text><text fill="rgb(0,0,0)" font-size="32" stroke-width="1" x="651.25" y="100.0">M</text><text fill="rgb(0,0,0)" font-size="32" stroke-width="1" x="55.0" y="672.1428571428571">13</text><text fill="rgb(0,0,0)" font-size="32" stroke-width="1" x="651.25" y="1022.5">M</text><text fill="rgb(0,0,0)" font-size="32" stroke-width="1" x="1022.5" y="672.1428571428571">13</text><text fill="rgb(0,0,0)" font-size="32" stroke-width="1" x="696.25" y="100.0">N</text><text fill="rgb(0,0,0)" font-size="32" stroke-width="1" x="55.0" y="717.1428571428571">14</text><text fill="rgb(0,0,0)" font-size="32" stroke-width="1" x="696.25" y="1022.5">N</text><text fill="rgb(0,0,0)" font-size="32" stroke-width="1" x="1022.5" y="717.1428571428571">14</text><text fill="rgb(0,0,0)" font-size="32" stroke-width="1" x="741.25" y="100.0">O</text><text fill="rgb(0,0,0)" font-size="32" stroke-width="1" x="55.0" y="762.1428571428571">15</text><text fill="rgb(0,0,0)" font-size="32" stroke-width="1" x="741.25" y="1022.5">O</text><text fill="rgb(0,0,0)" font-size="32" stroke-width="1" x="1022.5" y="762.1428571428571">15</text><text fill="rgb(0,0,0)" font-size="32" stroke-width="1" x="786.25" y="100.0">P</text><text fill="rgb(0,0,0)" font-size="32" stroke-width="1" x="55.0" y="807.1428571428571">16</text><text fill="rgb(0,0,0)" font-size="32" stroke-width="1" x="786.25" y="1022.5">P</text><text fill="rgb(0,0,0)" font-size="32" stroke-width="1" x="1022.5" y="807.1428571428571">16</text><text fill="rgb(0,0,0)" font-size="32" stroke-width="1" x="831.25" y="100.0">Q</text><text fill="rgb(0,0,0)" font-size="32" stroke-width="1" x="55.0" y="852.1428571428571">17</text><text fill="rgb(0,0,0)" font-size="32" stroke-width="1" x="831.25" y="1022.5">Q</text><text fill="rgb(0,0,0)" font-size="32" stroke-width="1" x="1022.5" y="852.1428571428571">17</text><text fill="rgb(0,0,0)" font-size="32" stroke-width="1" x="876.25" y="100.0">R</text><text fill="rgb(0,0,0)" font-size="32" stroke-width="1" x="55.0" y="897.1428571428571">18</text><text fill="rgb(0,0,0)" font-size="32" stroke-width="1" x="876.25" y="1022.5">R</text><text fill="rgb(0,0,0)" font-size="32" stroke-width="1" x="1022.5" y="897.1428571428571">18</text><text fill="rgb(0,0,0)" font-size="32" stroke-width="1" x="921.25" y="100.0">S</text><text fill="rgb(0,0,0)" font-size="32" stroke-width="1" x="55.0" y="942.1428571428571">19</text><text fill="rgb(0,0,0)" font-size="32" stroke-width="1" x="921.25" y="1022.5">S</text><text fill="rgb(0,0,0)" font-size="32" stroke-width="1" x="1022.5" y="942.1428571428571">19</text><text fill="rgb(0,0,0)" font-size="32" stroke-width="1" x="966.25" y="100.0">T</text><text fill="rgb(0,0,0)" font-size="32" stroke-width="1" x="55.0" y="987.1428571428571">20</text><text fill="rgb(0,0,0)" font-size="32" stroke-width="1" x="966.25" y="1022.5">T</text><text fill="rgb(0,0,0)" font-size="32" stroke-width="1" x="1022.5" y="987.1428571428571">20</text><text fill="rgb(0,0,0)" font-size="64" stroke-width="2" x="820.0" y="1000.0">1</text><text fill="rgb(0,0,0)" font-size="64" stroke-width="2" x="865.0" y="955.0">1</text><text fill="rgb(0,0,0)" font-size="64" stroke-width="2" x="865.0" y="1000.0">1</text><text fill="rgb(0,0,0)" font-size="64" stroke-width="2" x="910.0" y="865.0">1</text><text fill="rgb(0,0,0)" font-size="64" stroke-width="2" x="910.0" y="910.0">1</text><text fill="rgb(0,0,0)" font-size="64" stroke-width="2" x="910.0" y="955.0">1</text><text fill="rgb(0,0,0)" font-size="64" stroke-width="2" x="910.0" y="1000.0">1</text><text fill="rgb(0,0,0)" font-size="64" stroke-width="2" x="955.0" y="145.0">1</text><text fill="rgb(0,0,0)" font-size="64" stroke-width="2" x="955.0" y="775.0">1</text><text fill="rgb(0,0,0)" font-size="64" stroke-width="2" x="955.0" y="820.0">1</text><text fill="rgb(0,0,0)" font-size="64" stroke-width="2" x="955.0" y="865.0">1</text><text fill="rgb(0,0,0)" font-size="64" stroke-width="2" x="955.0" y="910.0">1</text><text fill="rgb(0,0,0)" font-size="64" stroke-width="2" x="955.0" y="955.0">1</text><text fill="rgb(0,0,0)" font-size="64" stroke-width="2" x="955.0" y="1000.0">1</text><text fill="rgb(0,0,0)" font-size="64" stroke-width="2" x="595.0" y="1000.0">2</text><text fill="rgb(0,0,0)" font-size="64" stroke-width="2" x="640.0" y="955.0">2</text><text fill="rgb(0,0,0)" font-size="64" stroke-width="2" x="640.0" y="1000.0">2</text><text fill="rgb(0,0,0)" font-size="64" stroke-width="2" x="685.0" y="910.0">2</text><text fill="rgb(0,0,0)" font-size="64" stroke-width="2" x="685.0" y="955.0">2</text><text fill="rgb(0,0,0)" font-size="64" stroke-width="2" x="685.0" y="1000.0">2</text><text fill="rgb(0,0,0)" font-size="64" stroke-width="2" x="730.0" y="820.0">2</text><text fill="rgb(0,0,0)" font-size="64" stroke-width="2" x="730.0" y="865.0">2</text><text fill="rgb(0,0,0)" font-size="64" stroke-width="2" x="730.0" y="910.0">2</text><text fill="rgb(0,0,0)" font-size="64" stroke-width="2" x="730.0" y="955.0">2</text><text fill="rgb(0,0,0)" font-size="64" stroke-width="2" x="730.0" y="1000.0">2</text><text fill="rgb(0,0,0)" font-size="64" stroke-width="2" x="775.0" y="145.0">2</text><text fill="rgb(0,0,0)" font-size="64" stroke-width="2" x="775.0" y="730.0">2</text><text fill="rgb(0,0,0)" font-size="64" stroke-width="2" x="775.0" y="775.0">2</text><text fill="rgb(0,0,0)" font-size="64" stroke-width="2" x="775.0" y="820.0">2</text><text fill="rgb(0,0,0)" font-size="64" stroke-width="2" x="775.0" y="865.0">2</text><text fill="rgb(0,0,0)" font-size="64" stroke-width="2" x="775.0" y="910.0">2</text><text fill="rgb(0,0,0)" font-size="64" stroke-width="2" x="775.0" y="955.0">2</text><text fill="rgb(0,0,0)" font-size="64" stroke-width="2" x="775.0" y="190.0">2</text><text fill="rgb(0,0,0)" font-size="64" stroke-width="2" x="775.0" y="1000.0">2</text><text fill="rgb(0,0,0)" font-size="64" stroke-width="2" x="820.0" y="145.0">2</text><text fill="rgb(0,0,0)" font-size="64" stroke-width="2" x="820.0" y="550.0">2</text><text fill="rgb(0,0,0)" font-size="64" stroke-width="2" x="820.0" y="595.0">2</text><text fill="rgb(0,0,0)" font-size="64" stroke-width="2" x="820.0" y="640.0">2</text><text fill="rgb(0,0,0)" font-size="64" stroke-width="2" x="820.0" y="685.0">2</text><text fill="rgb(0,0,0)" font-size="64" stroke-width="2" x="820.0" y="730.0">2</text><text fill="rgb(0,0,0)" font-size="64" stroke-width="2" x="820.0" y="775.0">2</text><text fill="rgb(0,0,0)" font-size="64" stroke-width="2" x="820.0" y="820.0">2</text><text fill="rgb(0,0,0)" font-size="64" stroke-width="2" x="820.0" y="865.0">2</text><text fill="rgb(0,0,0)" font-size="64" stroke-width="2" x="820.0" y="910.0">2</text><text fill="rgb(0,0,0)" font-size="64" stroke-width="2" x="820.0" y="955.0">2</text><text fill="rgb(0,0,0)" font-size="64" stroke-width="2" x="820.0" y="190.0">2</text><text fill="rgb(0,0,0)" font-size="64" stroke-width="2" x="820.0" y="235.0">2</text><text fill="rgb(0,0,0)" font-size="64" stroke-width="2" x="820.0" y="280.0">2</text><text fill="rgb(0,0,0)" font-size="64" stroke-width="2" x="820.0" y="325.0">2</text><text fill="rgb(0,0,0)" font-size="64" stroke-width="2" x="820.0" y="370.0">2</text><text fill="rgb(0,0,0)" font-size="64" stroke-width="2" x="820.0" y="415.0">2</text><text fill="rgb(0,0,0)" font-size="64" stroke-width="2" x="820.0" y="460.0">2</text><text fill="rgb(0,0,0)" font-size="64" stroke-width="2" x="820.0" y="505.0">2</text><text fill="rgb(0,0,0)" font-size="64" stroke-width="2" x="865.0" y="145.0">2</text><text fill="rgb(0,0,0)" font-size="64" stroke-width="2" x="865.0" y="550.0">2</text><text fill="rgb(0,0,0)" font-size="64" stroke-width="2" x="865.0" y="595.0">2</text><text fill="rgb(0,0,0)" font-size="64" stroke-width="2" x="865.0" y="640.0">2</text><text fill="rgb(0,0,0)" font-size="64" stroke-width="2" x="865.0" y="685.0">2</text><text fill="rgb(0,0,0)" font-size="64" stroke-width="2" x="865.0" y="730.0">2</text><text fill="rgb(0,0,0)" font-size="64" stroke-width="2" x="865.0" y="775.0">2</text><text fill="rgb(0,0,0)" font-size="64" stroke-width="2" x="865.0" y="820.0">2</text><text fill="rgb(0,0,0)" font-size="64" stroke-width="2" x="865.0" y="865.0">2</text><text fill="rgb(0,0,0)" font-size="64" stroke-width="2" x="865.0" y="910.0">2</text><text fill="rgb(0,0,0)" font-size="64" stroke-width="2" x="865.0" y="190.0">2</text><text fill="rgb(0,0,0)" font-size="64" stroke-width="2" x="865.0" y="235.0">2</text><text fill="rgb(0,0,0)" font-size="64" stroke-width="2" x="865.0" y="280.0">2</text><text fill="rgb(0,0,0)" font-size="64" stroke-width="2" x="865.0" y="325.0">2</text><text fill="rgb(0,0,0)" font-size="64" stroke-width="2" x="865.0" y="370.0">2</text><text fill="rgb(0,0,0)" font-size="64" stroke-width="2" x="865.0" y="415.0">2</text><text fill="rgb(0,0,0)" font-size="64" stroke-width="2" x="865.0" y="460.0">2</text><text fill="rgb(0,0,0)" font-size="64" stroke-width="2" x="865.0" y="505.0">2</text><text fill="rgb(0,0,0)" font-size="64" stroke-width="2" x="910.0" y="145.0">2</text><text fill="rgb(0,0,0)" font-size="64" stroke-width="2" x="910.0" y="550.0">2</text><text fill="rgb(0,0,0)" font-size="64" stroke-width="2" x="910.0" y="595.0">2</text><text fill="rgb(0,0,0)" font-size="64" stroke-width="2" x="910.0" y="640.0">2</text><text fill="rgb(0,0,0)" font-size="64" stroke-width="2" x="910.0" y="685.0">2</text><text fill="rgb(0,0,0)" font-size="64" stroke-width="2" x="910.0" y="730.0">2</text><text fill="rgb(0,0,0)" font-size="64" stroke-width="2" x="910.0" y="775.0">2</text><text fill="rgb(0,0,0)" font-size="64" stroke-width="2" x="910.0" y="820.0">2</text><text fill="rgb(0,0,0)" font-size="64" stroke-width="2" x="910.0" y="190.0">2</text><text fill="rgb(0,0,0)" font-size="64" stroke-width="2" x="910.0" y="235.0">2</text><text fill="rgb(0,0,0)" font-size="64" stroke-width="2" x="910.0" y="280.0">2</text><text fill="rgb(0,0,0)" font-size="64" stroke-width="2" x="910.0" y="325.0">2</text><text fill="rgb(0,0,0)" font-size="64" stroke-width="2" x="910.0" y="370.0">2</text><text fill="rgb(0,0,0)" font-size="64" stroke-width="2" x="910.0" y="415.0">2</text><text fill="rgb(0,0,0)" font-size="64" stroke-width="2" x="910.0" y="460.0">2</text><text fill="rgb(0,0,0)" font-size="64" stroke-width="2" x="910.0" y="505.0">2</text><text fill="rgb(0,0,0)" font-size="64" stroke-width="2" x="955.0" y="550.0">2</text><text fill="rgb(0,0,0)" font-size="64" stroke-width="2" x="955.0" y="595.0">2</text><text fill="rgb(0,0,0)" font-size="64" stroke-width="2" x="955.0" y="640.0">2</text><text fill="rgb(0,0,0)" font-size="64" stroke-width="2" x="955.0" y="685.0">2</text><text fill="rgb(0,0,0)" font-size="64" stroke-width="2" x="955.0" y="730.0">2</text><text fill="rgb(0,0,0)" font-size="64" stroke-width="2" x="955.0" y="190.0">2</text><text fill="rgb(0,0,0)" font-size="64" stroke-width="2" x="955.0" y="235.0">2</text><text fill="rgb(0,0,0)" font-size="64" stroke-width="2" x="955.0" y="280.0">2</text><text fill="rgb(0,0,0)" font-size="64" stroke-width="2" x="955.0" y="325.0">2</text><text fill="rgb(0,0,0)" font-size="64" stroke-width="2" x="955.0" y="370.0">2</text><text fill="rgb(0,0,0)" font-size="64" stroke-width="2" x="955.0" y="415.0">2</text><text fill="rgb(0,0,0)" font-size="64" stroke-width="2" x="955.0" y="460.0">2</text><text fill="rgb(0,0,0)" font-size="64" stroke-width="2" x="955.0" y="505.0">2</text><text fill="rgb(0,0,0)" font-size="64" stroke-width="2" x="100.0" y="1000.0">3</text><text fill="rgb(0,0,0)" font-size="64" stroke-width="2" x="145.0" y="1000.0">3</text><text fill="rgb(0,0,0)" font-size="64" stroke-width="2" x="190.0" y="1000.0">3</text><text fill="rgb(0,0,0)" font-size="64" stroke-width="2" x="235.0" y="1000.0">3</text><text fill="rgb(0,0,0)" font-size="64" stroke-width="2" x="280.0" y="1000.0">3</text><text fill="rgb(0,0,0)" font-size="64" stroke-width="2" x="325.0" y="955.0">3</text><text fill="rgb(0,0,0)" font-size="64" stroke-width="2" x="325.0" y="1000.0">3</text><text fill="rgb(0,0,0)" font-size="64" stroke-width="2" x="370.0" y="955.0">3</text><text fill="rgb(0,0,0)" font-size="64" stroke-width="2" x="370.0" y="1000.0">3</text><text fill="rgb(0,0,0)" font-size="64" stroke-width="2" x="415.0" y="910.0">3</text><text fill="rgb(0,0,0)" font-size="64" stroke-width="2" x="415.0" y="955.0">3</text><text fill="rgb(0,0,0)" font-size="64" stroke-width="2" x="415.0" y="1000.0">3</text><text fill="rgb(0,0,0)" font-size="64" stroke-width="2" x="460.0" y="865.0">3</text><text fill="rgb(0,0,0)" font-size="64" stroke-width="2" x="460.0" y="910.0">3</text><text fill="rgb(0,0,0)" font-size="64" stroke-width="2" x="460.0" y="955.0">3</text><text fill="rgb(0,0,0)" font-size="64" stroke-width="2" x="460.0" y="1000.0">3</text><text fill="rgb(0,0,0)" font-size="64" stroke-width="2" x="505.0" y="820.0">3</text><text fill="rgb(0,0,0)" font-size="64" stroke-width="2" x="505.0" y="865.0">3</text><text fill="rgb(0,0,0)" font-size="64" stroke-width="2" x="505.0" y="910.0">3</text><text fill="rgb(0,0,0)" font-size="64" stroke-width="2" x="505.0" y="955.0">3</text><text fill="rgb(0,0,0)" font-size="64" stroke-width="2" x="505.0" y="1000.0">3</text><text fill="rgb(0,0,0)" font-size="64" stroke-width="2" x="550.0" y="145.0">3</text><text fill="rgb(0,0,0)" font-size="64" stroke-width="2" x="550.0" y="775.0">3</text><text fill="rgb(0,0,0)" font-size="64" stroke-width="2" x="550.0" y="820.0">3</text><text fill="rgb(0,0,0)" font-size="64" stroke-width="2" x="550.0" y="865.0">3</text><text fill="rgb(0,0,0)" font-size="64" stroke-width="2" x="550.0" y="910.0">3</text><text fill="rgb(0,0,0)" font-size="64" stroke-width="2" x="550.0" y="955.0">3</text><text fill="rgb(0,0,0)" font-size="64" stroke-width="2" x="550.0" y="1000.0">3</text><text fill="rgb(0,0,0)" font-size="64" stroke-width="2" x="595.0" y="145.0">3</text><text fill="rgb(0,0,0)" font-size="64" stroke-width="2" x="595.0" y="685.0">3</text><text fill="rgb(0,0,0)" font-size="64" stroke-width="2" x="595.0" y="730.0">3</text><text fill="rgb(0,0,0)" font-size="64" stroke-width="2" x="595.0" y="775.0">3</text><text fill="rgb(0,0,0)" font-size="64" stroke-width="2" x="595.0" y="820.0">3</text><text fill="rgb(0,0,0)" font-size="64" stroke-width="2" x="595.0" y="865.0">3</text><text fill="rgb(0,0,0)" font-size="64" stroke-width="2" x="595.0" y="910.0">3</text><text fill="rgb(0,0,0)" font-size="64" stroke-width="2" x="595.0" y="955.0">3</text><text fill="rgb(0,0,0)" font-size="64" stroke-width="2" x="595.0" y="190.0">3</text><text fill="rgb(0,0,0)" font-size="64" stroke-width="2" x="595.0" y="235.0">3</text><text fill="rgb(0,0,0)" font-size="64" stroke-width="2" x="640.0" y="145.0">3</text><text fill="rgb(0,0,0)" font-size="64" stroke-width="2" x="640.0" y="550.0">3</text><text fill="rgb(0,0,0)" font-size="64" stroke-width="2" x="640.0" y="595.0">3</text><text fill="rgb(0,0,0)" font-size="64" stroke-width="2" x="640.0" y="640.0">3</text><text fill="rgb(0,0,0)" font-size="64" stroke-width="2" x="640.0" y="685.0">3</text><text fill="rgb(0,0,0)" font-size="64" stroke-width="2" x="640.0" y="730.0">3</text><text fill="rgb(0,0,0)" font-size="64" stroke-width="2" x="640.0" y="775.0">3</text><text fill="rgb(0,0,0)" font-size="64" stroke-width="2" x="640.0" y="820.0">3</text><text fill="rgb(0,0,0)" font-size="64" stroke-width="2" x="640.0" y="865.0">3</text><text fill="rgb(0,0,0)" font-size="64" stroke-width="2" x="640.0" y="910.0">3</text><text fill="rgb(0,0,0)" font-size="64" stroke-width="2" x="640.0" y="190.0">3</text><text fill="rgb(0,0,0)" font-size="64" stroke-width="2" x="640.0" y="235.0">3</text><text fill="rgb(0,0,0)" font-size="64" stroke-width="2" x="640.0" y="280.0">3</text><text fill="rgb(0,0,0)" font-size="64" stroke-width="2" x="640.0" y="325.0">3</text><text fill="rgb(0,0,0)" font-size="64" stroke-width="2" x="640.0" y="370.0">3</text><text fill="rgb(0,0,0)" font-size="64" stroke-width="2" x="640.0" y="415.0">3</text><text fill="rgb(0,0,0)" font-size="64" stroke-width="2" x="640.0" y="460.0">3</text><text fill="rgb(0,0,0)" font-size="64" stroke-width="2" x="640.0" y="505.0">3</text><text fill="rgb(0,0,0)" font-size="64" stroke-width="2" x="685.0" y="145.0">3</text><text fill="rgb(0,0,0)" font-size="64" stroke-width="2" x="685.0" y="550.0">3</text><text fill="rgb(0,0,0)" font-size="64" stroke-width="2" x="685.0" y="595.0">3</text><text fill="rgb(0,0,0)" font-size="64" stroke-width="2" x="685.0" y="640.0">3</text><text fill="rgb(0,0,0)" font-size="64" stroke-width="2" x="685.0" y="685.0">3</text><text fill="rgb(0,0,0)" font-size="64" stroke-width="2" x="685.0" y="730.0">3</text><text fill="rgb(0,0,0)" font-size="64" stroke-width="2" x="685.0" y="775.0">3</text><text fill="rgb(0,0,0)" font-size="64" stroke-width="2" x="685.0" y="820.0">3</text><text fill="rgb(0,0,0)" font-size="64" stroke-width="2" x="685.0" y="865.0">3</text><text fill="rgb(0,0,0)" font-size="64" stroke-width="2" x="685.0" y="190.0">3</text><text fill="rgb(0,0,0)" font-size="64" stroke-width="2" x="685.0" y="235.0">3</text><text fill="rgb(0,0,0)" font-size="64" stroke-width="2" x="685.0" y="280.0">3</text><text fill="rgb(0,0,0)" font-size="64" stroke-width="2" x="685.0" y="325.0">3</text><text fill="rgb(0,0,0)" font-size="64" stroke-width="2" x="685.0" y="370.0">3</text><text fill="rgb(0,0,0)" font-size="64" stroke-width="2" x="685.0" y="415.0">3</text><text fill="rgb(0,0,0)" font-size="64" stroke-width="2" x="685.0" y="460.0">3</text><text fill="rgb(0,0,0)" font-size="64" stroke-width="2" x="685.0" y="505.0">3</text><text fill="rgb(0,0,0)" font-size="64" stroke-width="2" x="730.0" y="145.0">3</text><text fill="rgb(0,0,0)" font-size="64" stroke-width="2" x="730.0" y="550.0">3</text><text fill="rgb(0,0,0)" font-size="64" stroke-width="2" x="730.0" y="595.0">3</text><text fill="rgb(0,0,0)" font-size="64" stroke-width="2" x="730.0" y="640.0">3</text><text fill="rgb(0,0,0)" font-size="64" stroke-width="2" x="730.0" y="685.0">3</text><text fill="rgb(0,0,0)" font-size="64" stroke-width="2" x="730.0" y="730.0">3</text><text fill="rgb(0,0,0)" font-size="64" stroke-width="2" x="730.0" y="775.0">3</text><text fill="rgb(0,0,0)" font-size="64" stroke-width="2" x="730.0" y="190.0">3</text><text fill="rgb(0,0,0)" font-size="64" stroke-width="2" x="730.0" y="235.0">3</text><text fill="rgb(0,0,0)" font-size="64" stroke-width="2" x="730.0" y="280.0">3</text><text fill="rgb(0,0,0)" font-size="64" stroke-width="2" x="730.0" y="325.0">3</text><text fill="rgb(0,0,0)" font-size="64" stroke-width="2" x="730.0" y="370.0">3</text><text fill="rgb(0,0,0)" font-size="64" stroke-width="2" x="730.0" y="415.0">3</text><text fill="rgb(0,0,0)" font-size="64" stroke-width="2" x="730.0" y="460.0">3</text><text fill="rgb(0,0,0)" font-size="64" stroke-width="2" x="730.0" y="505.0">3</text><text fill="rgb(0,0,0)" font-size="64" stroke-width="2" x="775.0" y="550.0">3</text><text fill="rgb(0,0,0)" font-size="64" stroke-width="2" x="775.0" y="595.0">3</text><text fill="rgb(0,0,0)" font-size="64" stroke-width="2" x="775.0" y="640.0">3</text><text fill="rgb(0,0,0)" font-size="64" stroke-width="2" x="775.0" y="685.0">3</text><text fill="rgb(0,0,0)" font-size="64" stroke-width="2" x="775.0" y="235.0">3</text><text fill="rgb(0,0,0)" font-size="64" stroke-width="2" x="775.0" y="280.0">3</text><text fill="rgb(0,0,0)" font-size="64" stroke-width="2" x="775.0" y="325.0">3</text><text fill="rgb(0,0,0)" font-size="64" stroke-width="2" x="775.0" y="370.0">3</text><text fill="rgb(0,0,0)" font-size="64" stroke-width="2" x="775.0" y="415.0">3</text><text fill="rgb(0,0,0)" font-size="64" stroke-width="2" x="775.0" y="460.0">3</text><text fill="rgb(0,0,0)" font-size="64" stroke-width="2" x="775.0" y="505.0">3</text><text fill="rgb(0,0,0)" font-size="64" stroke-width="2" x="100.0" y="820.0">4</text><text fill="rgb(0,0,0)" font-size="64" stroke-width="2" x="100.0" y="865.0">4</text><text fill="rgb(0,0,0)" font-size="64" stroke-width="2" x="100.0" y="910.0">4</text><text fill="rgb(0,0,0)" font-size="64" stroke-width="2" x="100.0" y="955.0">4</text><text fill="rgb(0,0,0)" font-size="64" stroke-width="2" x="145.0" y="820.0">4</text><text fill="rgb(0,0,0)" font-size="64" stroke-width="2" x="145.0" y="865.0">4</text><text fill="rgb(0,0,0)" font-size="64" stroke-width="2" x="145.0" y="910.0">4</text><text fill="rgb(0,0,0)" font-size="64" stroke-width="2" x="145.0" y="955.0">4</text><text fill="rgb(0,0,0)" font-size="64" stroke-width="2" x="190.0" y="820.0">4</text><text fill="rgb(0,0,0)" font-size="64" stroke-width="2" x="190.0" y="865.0">4</text><text fill="rgb(0,0,0)" font-size="64" stroke-width="2" x="190.0" y="910.0">4</text><text fill="rgb(0,0,0)" font-size="64" stroke-width="2" x="190.0" y="955.0">4</text><text fill="rgb(0,0,0)" font-size="64" stroke-width="2" x="235.0" y="820.0">4</text><text fill="rgb(0,0,0)" font-size="64" stroke-width="2" x="235.0" y="865.0">4</text><text fill="rgb(0,0,0)" font-size="64" stroke-width="2" x="235.0" y="910.0">4</text><text fill="rgb(0,0,0)" font-size="64" stroke-width="2" x="235.0" y="955.0">4</text><text fill="rgb(0,0,0)" font-size="64" stroke-width="2" x="280.0" y="145.0">4</text><text fill="rgb(0,0,0)" font-size="64" stroke-width="2" x="280.0" y="775.0">4</text><text fill="rgb(0,0,0)" font-size="64" stroke-width="2" x="280.0" y="820.0">4</text><text fill="rgb(0,0,0)" font-size="64" stroke-width="2" x="280.0" y="865.0">4</text><text fill="rgb(0,0,0)" font-size="64" stroke-width="2" x="280.0" y="910.0">4</text><text fill="rgb(0,0,0)" font-size="64" stroke-width="2" x="280.0" y="955.0">4</text><text fill="rgb(0,0,0)" font-size="64" stroke-width="2" x="325.0" y="145.0">4</text><text fill="rgb(0,0,0)" font-size="64" stroke-width="2" x="325.0" y="775.0">4</text><text fill="rgb(0,0,0)" font-size="64" stroke-width="2" x="325.0" y="820.0">4</text><text fill="rgb(0,0,0)" font-size="64" stroke-width="2" x="325.0" y="865.0">4</text><text fill="rgb(0,0,0)" font-size="64" stroke-width="2" x="325.0" y="910.0">4</text><text fill="rgb(0,0,0)" font-size="64" stroke-width="2" x="370.0" y="145.0">4</text><text fill="rgb(0,0,0)" font-size="64" stroke-width="2" x="370.0" y="730.0">4</text><text fill="rgb(0,0,0)" font-size="64" stroke-width="2" x="370.0" y="775.0">4</text><text fill="rgb(0,0,0)" font-size="64" stroke-width="2" x="370.0" y="820.0">4</text><text fill="rgb(0,0,0)" font-size="64" stroke-width="2" x="370.0" y="865.0">4</text><text fill="rgb(0,0,0)" font-size="64" stroke-width="2" x="370.0" y="910.0">4</text><text fill="rgb(0,0,0)" font-size="64" stroke-width="2" x="370.0" y="190.0">4</text><text fill="rgb(0,0,0)" font-size="64" stroke-width="2" x="415.0" y="145.0">4</text><text fill="rgb(0,0,0)" font-size="64" stroke-width="2" x="415.0" y="640.0">4</text><text fill="rgb(0,0,0)" font-size="64" stroke-width="2" x="415.0" y="685.0">4</text><text fill="rgb(0,0,0)" font-size="64" stroke-width="2" x="415.0" y="730.0">4</text><text fill="rgb(0,0,0)" font-size="64" stroke-width="2" x="415.0" y="775.0">4</text><text fill="rgb(0,0,0)" font-size="64" stroke-width="2" x="415.0" y="820.0">4</text><text fill="rgb(0,0,0)" font-size="64" stroke-width="2" x="415.0" y="865.0">4</text><text fill="rgb(0,0,0)" font-size="64" stroke-width="2" x="415.0" y="190.0">4</text><text fill="rgb(0,0,0)" font-size="64" stroke-width="2" x="415.0" y="235.0">4</text><text fill="rgb(0,0,0)" font-size="64" stroke-width="2" x="415.0" y="280.0">4</text><text fill="rgb(0,0,0)" font-size="64" stroke-width="2" x="460.0" y="145.0">4</text><text fill="rgb(0,0,0)" font-size="64" stroke-width="2" x="460.0" y="550.0">4</text><text fill="rgb(0,0,0)" font-size="64" stroke-width="2" x="460.0" y="595.0">4</text><text fill="rgb(0,0,0)" font-size="64" stroke-width="2" x="460.0" y="640.0">4</text><text fill="rgb(0,0,0)" font-size="64" stroke-width="2" x="460.0" y="685.0">4</text><text fill="rgb(0,0,0)" font-size="64" stroke-width="2" x="460.0" y="730.0">4</text><text fill="rgb(0,0,0)" font-size="64" stroke-width="2" x="460.0" y="775.0">4</text><text fill="rgb(0,0,0)" font-size="64" stroke-width="2" x="460.0" y="820.0">4</text><text fill="rgb(0,0,0)" font-size="64" stroke-width="2" x="460.0" y="190.0">4</text><text fill="rgb(0,0,0)" font-size="64" stroke-width="2" x="460.0" y="235.0">4</text><text fill="rgb(0,0,0)" font-size="64" stroke-width="2" x="460.0" y="280.0">4</text><text fill="rgb(0,0,0)" font-size="64" stroke-width="2" x="460.0" y="325.0">4</text><text fill="rgb(0,0,0)" font-size="64" stroke-width="2" x="460.0" y="370.0">4</text><text fill="rgb(0,0,0)" font-size="64" stroke-width="2" x="460.0" y="415.0">4</text><text fill="rgb(0,0,0)" font-size="64" stroke-width="2" x="460.0" y="460.0">4</text><text fill="rgb(0,0,0)" font-size="64" stroke-width="2" x="460.0" y="505.0">4</text><text fill="rgb(0,0,0)" font-size="64" stroke-width="2" x="505.0" y="145.0">4</text><text fill="rgb(0,0,0)" font-size="64" stroke-width="2" x="505.0" y="550.0">4</text><text fill="rgb(0,0,0)" font-size="64" stroke-width="2" x="505.0" y="595.0">4</text><text fill="rgb(0,0,0)" font-size="64" stroke-width="2" x="505.0" y="640.0">4</text><text fill="rgb(0,0,0)" font-size="64" stroke-width="2" x="505.0" y="685.0">4</text><text fill="rgb(0,0,0)" font-size="64" stroke-width="2" x="505.0" y="730.0">4</text><text fill="rgb(0,0,0)" font-size="64" stroke-width="2" x="505.0" y="775.0">4</text><text fill="rgb(0,0,0)" font-size="64" stroke-width="2" x="505.0" y="190.0">4</text><text fill="rgb(0,0,0)" font-size="64" stroke-width="2" x="505.0" y="235.0">4</text><text fill="rgb(0,0,0)" font-size="64" stroke-width="2" x="505.0" y="280.0">4</text><text fill="rgb(0,0,0)" font-size="64" stroke-width="2" x="505.0" y="325.0">4</text><text fill="rgb(0,0,0)" font-size="64" stroke-width="2" x="505.0" y="370.0">4</text><text fill="rgb(0,0,0)" font-size="64" stroke-width="2" x="505.0" y="415.0">4</text><text fill="rgb(0,0,0)" font-size="64" stroke-width="2" x="505.0" y="460.0">4</text><text fill="rgb(0,0,0)" font-size="64" stroke-width="2" x="505.0" y="505.0">4</text><text fill="rgb(0,0,0)" font-size="64" stroke-width="2" x="550.0" y="550.0">4</text><text fill="rgb(0,0,0)" font-size="64" stroke-width="2" x="550.0" y="595.0">4</text><text fill="rgb(0,0,0)" font-size="64" stroke-width="2" x="550.0" y="640.0">4</text><text fill="rgb(0,0,0)" font-size="64" stroke-width="2" x="550.0" y="685.0">4</text><text fill="rgb(0,0,0)" font-size="64" stroke-width="2" x="550.0" y="730.0">4</text><text fill="rgb(0,0,0)" font-size="64" stroke-width="2" x="550.0" y="190.0">4</text><text fill="rgb(0,0,0)" font-size="64" stroke-width="2" x="550.0" y="235.0">4</text><text fill="rgb(0,0,0)" font-size="64" stroke-width="2" x="550.0" y="280.0">4</text><text fill="rgb(0,0,0)" font-size="64" stroke-width="2" x="550.0" y="325.0">4</text><text fill="rgb(0,0,0)" font-size="64" stroke-width="2" x="550.0" y="370.0">4</text><text fill="rgb(0,0,0)" font-size="64" stroke-width="2" x="550.0" y="415.0">4</text><text fill="rgb(0,0,0)" font-size="64" stroke-width="2" x="550.0" y="460.0">4</text><text fill="rgb(0,0,0)" font-size="64" stroke-width="2" x="550.0" y="505.0">4</text><text fill="rgb(0,0,0)" font-size="64" stroke-width="2" x="595.0" y="550.0">4</text><text fill="rgb(0,0,0)" font-size="64" stroke-width="2" x="595.0" y="595.0">4</text><text fill="rgb(0,0,0)" font-size="64" stroke-width="2" x="595.0" y="640.0">4</text><text fill="rgb(0,0,0)" font-size="64" stroke-width="2" x="595.0" y="280.0">4</text><text fill="rgb(0,0,0)" font-size="64" stroke-width="2" x="595.0" y="325.0">4</text><text fill="rgb(0,0,0)" font-size="64" stroke-width="2" x="595.0" y="370.0">4</text><text fill="rgb(0,0,0)" font-size="64" stroke-width="2" x="595.0" y="415.0">4</text><text fill="rgb(0,0,0)" font-size="64" stroke-width="2" x="595.0" y="460.0">4</text><text fill="rgb(0,0,0)" font-size="64" stroke-width="2" x="595.0" y="505.0">4</text><text fill="rgb(0,0,0)" font-size="64" stroke-width="2" x="100.0" y="145.0">5</text><text fill="rgb(0,0,0)" font-size="64" stroke-width="2" x="100.0" y="640.0">5</text><text fill="rgb(0,0,0)" font-size="64" stroke-width="2" x="100.0" y="685.0">5</text><text fill="rgb(0,0,0)" font-size="64" stroke-width="2" x="100.0" y="730.0">5</text><text fill="rgb(0,0,0)" font-size="64" stroke-width="2" x="100.0" y="775.0">5</text><text fill="rgb(0,0,0)" font-size="64" stroke-width="2" x="100.0" y="190.0">5</text><text fill="rgb(0,0,0)" font-size="64" stroke-width="2" x="100.0" y="235.0">5</text><text fill="rgb(0,0,0)" font-size="64" stroke-width="2" x="100.0" y="280.0">5</text><text fill="rgb(0,0,0)" font-size="64" stroke-width="2" x="145.0" y="145.0">5</text><text fill="rgb(0,0,0)" font-size="64" stroke-width="2" x="145.0" y="640.0">5</text><text fill="rgb(0,0,0)" font-size="64" stroke-width="2" x="145.0" y="685.0">5</text><text fill="rgb(0,0,0)" font-size="64" stroke-width="2" x="145.0" y="730.0">5</text><text fill="rgb(0,0,0)" font-size="64" stroke-width="2" x="145.0" y="775.0">5</text><text fill="rgb(0,0,0)" font-size="64" stroke-width="2" x="145.0" y="190.0">5</text><text fill="rgb(0,0,0)" font-size="64" stroke-width="2" x="145.0" y="235.0">5</text><text fill="rgb(0,0,0)" font-size="64" stroke-width="2" x="145.0" y="280.0">5</text><text fill="rgb(0,0,0)" font-size="64" stroke-width="2" x="190.0" y="145.0">5</text><text fill="rgb(0,0,0)" font-size="64" stroke-width="2" x="190.0" y="640.0">5</text><text fill="rgb(0,0,0)" font-size="64" stroke-width="2" x="190.0" y="685.0">5</text><text fill="rgb(0,0,0)" font-size="64" stroke-width="2" x="190.0" y="730.0">5</text><text fill="rgb(0,0,0)" font-size="64" stroke-width="2" x="190.0" y="775.0">5</text><text fill="rgb(0,0,0)" font-size="64" stroke-width="2" x="190.0" y="190.0">5</text><text fill="rgb(0,0,0)" font-size="64" stroke-width="2" x="190.0" y="235.0">5</text><text fill="rgb(0,0,0)" font-size="64" stroke-width="2" x="190.0" y="280.0">5</text><text fill="rgb(0,0,0)" font-size="64" stroke-width="2" x="235.0" y="145.0">5</text><text fill="rgb(0,0,0)" font-size="64" stroke-width="2" x="235.0" y="595.0">5</text><text fill="rgb(0,0,0)" font-size="64" stroke-width="2" x="235.0" y="640.0">5</text><text fill="rgb(0,0,0)" font-size="64" stroke-width="2" x="235.0" y="685.0">5</text><text fill="rgb(0,0,0)" font-size="64" stroke-width="2" x="235.0" y="730.0">5</text><text fill="rgb(0,0,0)" font-size="64" stroke-width="2" x="235.0" y="775.0">5</text><text fill="rgb(0,0,0)" font-size="64" stroke-width="2" x="235.0" y="190.0">5</text><text fill="rgb(0,0,0)" font-size="64" stroke-width="2" x="235.0" y="235.0">5</text><text fill="rgb(0,0,0)" font-size="64" stroke-width="2" x="235.0" y="280.0">5</text><text fill="rgb(0,0,0)" font-size="64" stroke-width="2" x="235.0" y="325.0">5</text><text fill="rgb(0,0,0)" font-size="64" stroke-width="2" x="280.0" y="550.0">5</text><text fill="rgb(0,0,0)" font-size="64" stroke-width="2" x="280.0" y="595.0">5</text><text fill="rgb(0,0,0)" font-size="64" stroke-width="2" x="280.0" y="640.0">5</text><text fill="rgb(0,0,0)" font-size="64" stroke-width="2" x="280.0" y="685.0">5</text><text fill="rgb(0,0,0)" font-size="64" stroke-width="2" x="280.0" y="730.0">5</text><text fill="rgb(0,0,0)" font-size="64" stroke-width="2" x="280.0" y="190.0">5</text><text fill="rgb(0,0,0)" font-size="64" stroke-width="2" x="280.0" y="235.0">5</text><text fill="rgb(0,0,0)" font-size="64" stroke-width="2" x="280.0" y="280.0">5</text><text fill="rgb(0,0,0)" font-size="64" stroke-width="2" x="280.0" y="325.0">5</text><text fill="rgb(0,0,0)" font-size="64" stroke-width="2" x="280.0" y="370.0">5</text><text fill="rgb(0,0,0)" font-size="64" stroke-width="2" x="280.0" y="415.0">5</text><text fill="rgb(0,0,0)" font-size="64" stroke-width="2" x="280.0" y="460.0">5</text><text fill="rgb(0,0,0)" font-size="64" stroke-width="2" x="280.0" y="505.0">5</text><text fill="rgb(0,0,0)" font-size="64" stroke-width="2" x="325.0" y="550.0">5</text><text fill="rgb(0,0,0)" font-size="64" stroke-width="2" x="325.0" y="595.0">5</text><text fill="rgb(0,0,0)" font-size="64" stroke-width="2" x="325.0" y="640.0">5</text><text fill="rgb(0,0,0)" font-size="64" stroke-width="2" x="325.0" y="685.0">5</text><text fill="rgb(0,0,0)" font-size="64" stroke-width="2" x="325.0" y="730.0">5</text><text fill="rgb(0,0,0)" font-size="64" stroke-width="2" x="325.0" y="190.0">5</text><text fill="rgb(0,0,0)" font-size="64" stroke-width="2" x="325.0" y="235.0">5</text><text fill="rgb(0,0,0)" font-size="64" stroke-width="2" x="325.0" y="280.0">5</text><text fill="rgb(0,0,0)" font-size="64" stroke-width="2" x="325.0" y="325.0">5</text><text fill="rgb(0,0,0)" font-size="64" stroke-width="2" x="325.0" y="370.0">5</text><text fill="rgb(0,0,0)" font-size="64" stroke-width="2" x="325.0" y="415.0">5</text><text fill="rgb(0,0,0)" font-size="64" stroke-width="2" x="325.0" y="460.0">5</text><text fill="rgb(0,0,0)" font-size="64" stroke-width="2" x="325.0" y="505.0">5</text><text fill="rgb(0,0,0)" font-size="64" stroke-width="2" x="370.0" y="550.0">5</text><text fill="rgb(0,0,0)" font-size="64" stroke-width="2" x="370.0" y="595.0">5</text><text fill="rgb(0,0,0)" font-size="64" stroke-width="2" x="370.0" y="640.0">5</text><text fill="rgb(0,0,0)" font-size="64" stroke-width="2" x="370.0" y="685.0">5</text><text fill="rgb(0,0,0)" font-size="64" stroke-width="2" x="370.0" y="235.0">5</text><text fill="rgb(0,0,0)" font-size="64" stroke-width="2" x="370.0" y="280.0">5</text><text fill="rgb(0,0,0)" font-size="64" stroke-width="2" x="370.0" y="325.0">5</text><text fill="rgb(0,0,0)" font-size="64" stroke-width="2" x="370.0" y="370.0">5</text><text fill="rgb(0,0,0)" font-size="64" stroke-width="2" x="370.0" y="415.0">5</text><text fill="rgb(0,0,0)" font-size="64" stroke-width="2" x="370.0" y="460.0">5</text><text fill="rgb(0,0,0)" font-size="64" stroke-width="2" x="370.0" y="505.0">5</text><text fill="rgb(0,0,0)" font-size="64" stroke-width="2" x="415.0" y="550.0">5</text><text fill="rgb(0,0,0)" font-size="64" stroke-width="2" x="415.0" y="595.0">5</text><text fill="rgb(0,0,0)" font-size="64" stroke-width="2" x="415.0" y="325.0">5</text><text fill="rgb(0,0,0)" font-size="64" stroke-width="2" x="415.0" y="370.0">5</text><text fill="rgb(0,0,0)" font-size="64" stroke-width="2" x="415.0" y="415.0">5</text><text fill="rgb(0,0,0)" font-size="64" stroke-width="2" x="415.0" y="460.0">5</text><text fill="rgb(0,0,0)" font-size="64" stroke-width="2" x="415.0" y="505.0">5</text><text fill="rgb(0,0,0)" font-size="64" stroke-width="2" x="100.0" y="550.0">6</text><text fill="rgb(0,0,0)" font-size="64" stroke-width="2" x="100.0" y="595.0">6</text><text fill="rgb(0,0,0)" font-size="64" stroke-width="2" x="100.0" y="325.0">6</text><text fill="rgb(0,0,0)" font-size="64" stroke-width="2" x="100.0" y="370.0">6</text><text fill="rgb(0,0,0)" font-size="64" stroke-width="2" x="145.0" y="550.0">6</text><text fill="rgb(0,0,0)" font-size="64" stroke-width="2" x="145.0" y="595.0">6</text><text fill="rgb(0,0,0)" font-size="64" stroke-width="2" x="145.0" y="325.0">6</text><text fill="rgb(0,0,0)" font-size="64" stroke-width="2" x="145.0" y="370.0">6</text><text fill="rgb(0,0,0)" font-size="64" stroke-width="2" x="190.0" y="550.0">6</text><text fill="rgb(0,0,0)" font-size="64" stroke-width="2" x="190.0" y="595.0">6</text><text fill="rgb(0,0,0)" font-size="64" stroke-width="2" x="190.0" y="325.0">6</text><text fill="rgb(0,0,0)" font-size="64" stroke-width="2" x="190.0" y="370.0">6</text><text fill="rgb(0,0,0)" font-size="64" stroke-width="2" x="190.0" y="415.0">6</text><text fill="rgb(0,0,0)" font-size="64" stroke-width="2" x="190.0" y="460.0">6</text><text fill="rgb(0,0,0)" font-size="64" stroke-width="2" x="190.0" y="505.0">6</text><text fill="rgb(0,0,0)" font-size="64" stroke-width="2" x="235.0" y="550.0">6</text><text fill="rgb(0,0,0)" font-size="64" stroke-width="2" x="235.0" y="370.0">6</text><text fill="rgb(0,0,0)" font-size="64" stroke-width="2" x="235.0" y="415.0">6</text><text fill="rgb(0,0,0)" font-size="64" stroke-width="2" x="235.0" y="460.0">6</text><text fill="rgb(0,0,0)" font-size="64" stroke-width="2" x="235.0" y="505.0">6</text><text fill="rgb(0,0,0)" font-size="64" stroke-width="2" x="100.0" y="415.0">7</text><text fill="rgb(0,0,0)" font-size="64" stroke-width="2" x="100.0" y="505.0">7</text><text fill="rgb(0,0,0)" font-size="64" stroke-width="2" x="145.0" y="415.0">7</text><text fill="rgb(0,0,0)" font-size="64" stroke-width="2" x="145.0" y="460.0">7</text><text fill="rgb(0,0,0)" font-size="64" stroke-width="2" x="145.0" y="505.0">7</text></svg>