<?xml version="1.0" encoding="utf-8" ?>
<svg baseProfile="full" height="100%" version="1.1" width="100%" xmlns="http://www.w3.org/2000/svg" xmlns:ev="http://www.w3.org/2001/xml-events" xmlns:xlink="http://www.w3.org/1999/xlink"><defs /><line stroke="rgb(10%,10%,16%)" x1="10.0" x2="10.0" y1="10.0" y2="100.0" /><line stroke="rgb(10%,10%,16%)" x1="28.0" x2="28.0" y1="10.0" y2="100.0" /><line stroke="rgb(10%,10%,16%)" x1="46.0" x2="46.0" y1="10.0" y2="100.0" /><line stroke="rgb(10%,10%,16%)" x1="64.0" x2="64.0" y1="10.0" y2="100.0" /><line stroke="rgb(10%,10%,16%)" x1="82.0" x2="82.0" y1="10.0" y2="100.0" /><line stroke="rgb(10%,10%,16%)" x1="100.0" x2="100.0" y1="10.0" y2="100.0" /><line stroke="rgb(10%,10%,16%)" x1="10.0" x2="100.0" y1="10.0" y2="10.0" /><line stroke="rgb(10%,10%,16%)" x1="10.0" x2="100.0" y1="28.0" y2="28.0" /><line stroke="rgb(10%,10%,16%)" x1="10.0" x2="100.0" y1="46.0" y2="46.0" /><line stroke="rgb(10%,10%,16%)" x1="10.0" x2="100.0" y1="64.0" y2="64.0" /><line stroke="rgb(10%,10%,16%)" x1="10.0" x2="100.0" y1="82.0" y2="82.0" /><line stroke="rgb(10%,10%,16%)" x1="10.0" x2="100.0" y1="100.0" y2="100.0" /><text fill="rgb(0,0,0)" font-size="24" stroke-width="2" x="28.0" y="46.0">X</text><text fill="rgb(0,0,0)" font-size="24" stroke-width="2" x="46.0" y="46.0">X</text><text fill="rgb(0,0,0)" font-size="24" stroke-width="2" x="64.0" y="46.0">X</text><text fill="rgb(0,0,0)" font-size="24" stroke-width="2" x="28.0" y="64.0">X</text><text fill="rgb(0,0,0)" font-size="24" stroke-width="2" x="64.0" y="64.0">X</text><text fill="rgb(0,0,0)" font-size="24" stroke-width="2" x="28.0" y="82.0">X</text><text fill="rgb(0,0,0)" font-size="24" stroke-width="2" x="46.0" y="82.0">X</text><text fill="rgb(0,0,0)" font-size="24" stroke-width="2" x="64.0" y="82.0">X</text><text fill="rgb(0,0,0)" font-size="18" stroke-width="2" x="46.0" y="62.0">웃</text></svg>