<?xml version="1.0" encoding="UTF-8" standalone="no"?>
<svg
   xmlns:dc="http://purl.org/dc/elements/1.1/"
   xmlns:cc="http://creativecommons.org/ns#"
   xmlns:rdf="http://www.w3.org/1999/02/22-rdf-syntax-ns#"
   xmlns:svg="http://www.w3.org/2000/svg"
   xmlns="http://www.w3.org/2000/svg"
   xmlns:sodipodi="http://sodipodi.sourceforge.net/DTD/sodipodi-0.dtd"
   xmlns:inkscape="http://www.inkscape.org/namespaces/inkscape"
   fill-opacity="1"
   color-rendering="auto"
   color-interpolation="auto"
   text-rendering="auto"
   stroke="black"
   stroke-linecap="square"
   stroke-miterlimit="10"
   shape-rendering="auto"
   stroke-opacity="1"
   fill="black"
   stroke-dasharray="none"
   font-weight="normal"
   stroke-width="1"
   font-family="'Dialog'"
   font-style="normal"
   stroke-linejoin="miter"
   font-size="12"
   stroke-dashoffset="0"
   image-rendering="auto"
   version="1.1"
   id="svg9"
   sodipodi:docname="round_target.svg"
   inkscape:version="0.92.5 (2060ec1f9f, 2020-04-08)">
  <metadata
     id="metadata13">
    <rdf:RDF>
      <cc:Work
         rdf:about="">
        <dc:format>image/svg+xml</dc:format>
        <dc:type
           rdf:resource="http://purl.org/dc/dcmitype/StillImage" />
        <dc:title></dc:title>
      </cc:Work>
    </rdf:RDF>
  </metadata>
  <sodipodi:namedview
     pagecolor="#ffffff"
     bordercolor="#666666"
     borderopacity="1"
     objecttolerance="10"
     gridtolerance="10"
     guidetolerance="10"
     inkscape:pageopacity="0"
     inkscape:pageshadow="2"
     inkscape:window-width="1920"
     inkscape:window-height="1015"
     id="namedview11"
     showgrid="false"
     inkscape:zoom="2.36"
     inkscape:cx="50"
     inkscape:cy="-134.73334"
     inkscape:window-x="0"
     inkscape:window-y="36"
     inkscape:window-maximized="1"
     inkscape:current-layer="g7" />
  <!--Unicode Character 'ROUND TARGET' (U+1F78B)-->
  <defs
     id="genericDefs" />
  <g
     id="g7">
    <g
       id="g5"
       transform="matrix(0.47500606,0,0,0.47727381,-3.2359522,-84.554297)">
      <path
         d="m 217.4062,283.2188 q 0,43.875 -30.7343,74.6093 -30.7188,30.7188 -74.5938,30.7188 -43.875,0 -74.6093,-30.7188 Q 6.75,327.0938 6.75,283.2188 q 0,-43.875 30.7188,-74.5938 30.7343,-30.7344 74.6093,-30.7344 43.875,0 74.5938,30.7344 30.7343,30.7188 30.7343,74.5938 z m -21.0937,0 q 0,-35.1563 -24.5469,-59.6876 -24.5312,-24.5468 -59.6875,-24.5468 -35.1562,0 -59.7031,24.5468 -24.5312,24.5313 -24.5312,59.6876 0,35.1562 24.5312,59.7031 24.5469,24.5312 59.7031,24.5312 35.1563,0 59.6875,-24.5312 24.5469,-24.5469 24.5469,-59.7031 z m -21.0937,0 q 0,26.4374 -18.3594,44.7968 -18.3438,18.3438 -44.7813,18.3438 -26.4375,0 -44.7969,-18.3438 -18.3437,-18.3594 -18.3437,-44.7968 0,-26.4376 18.3437,-44.7813 18.3594,-18.3594 44.7969,-18.3594 26.4375,0 44.7813,18.3594 18.3594,18.3437 18.3594,44.7813 z m -21.0938,0 q 0,-17.5782 -12.2344,-29.8126 -12.2344,-12.2343 -29.8125,-12.2343 -17.5781,0 -29.8125,12.2343 -12.2344,12.2344 -12.2344,29.8126 0,17.5781 12.2344,29.8124 12.2344,12.2344 29.8125,12.2344 17.5781,0 29.8125,-12.2344 12.2344,-12.2343 12.2344,-29.8124 z m -19.6875,0 q 0,9.4218 -6.4687,15.8906 -6.4688,6.4687 -15.8907,6.4687 -9.4219,0 -15.8906,-6.4687 -6.4687,-6.4688 -6.4687,-15.8906 0,-9.4219 6.4687,-15.8907 6.4687,-6.4687 15.8906,-6.4687 9.4219,0 15.8907,6.4687 6.4687,6.4688 6.4687,15.8907 z"
         id="path3"
         inkscape:connector-curvature="0"
         style="stroke:none" />
    </g>
  </g>
</svg>
