<?xml version="1.0" encoding="UTF-8" standalone="no"?>
<svg
   xmlns:dc="http://purl.org/dc/elements/1.1/"
   xmlns:cc="http://creativecommons.org/ns#"
   xmlns:rdf="http://www.w3.org/1999/02/22-rdf-syntax-ns#"
   xmlns:svg="http://www.w3.org/2000/svg"
   xmlns="http://www.w3.org/2000/svg"
   xmlns:sodipodi="http://sodipodi.sourceforge.net/DTD/sodipodi-0.dtd"
   xmlns:inkscape="http://www.inkscape.org/namespaces/inkscape"
   fill-opacity="1"
   color-rendering="auto"
   color-interpolation="auto"
   text-rendering="auto"
   stroke="black"
   stroke-linecap="square"
   stroke-miterlimit="10"
   shape-rendering="auto"
   stroke-opacity="1"
   fill="black"
   stroke-dasharray="none"
   font-weight="normal"
   stroke-width="1"
   font-family="'Dialog'"
   font-style="normal"
   stroke-linejoin="miter"
   font-size="12"
   stroke-dashoffset="0"
   image-rendering="auto"
   version="1.1"
   id="svg9"
   sodipodi:docname="skull_and_crossbones.svg"
   inkscape:version="0.92.5 (2060ec1f9f, 2020-04-08)">
  <metadata
     id="metadata13">
    <rdf:RDF>
      <cc:Work
         rdf:about="">
        <dc:format>image/svg+xml</dc:format>
        <dc:type
           rdf:resource="http://purl.org/dc/dcmitype/StillImage" />
        <dc:title></dc:title>
      </cc:Work>
    </rdf:RDF>
  </metadata>
  <sodipodi:namedview
     pagecolor="#ffffff"
     bordercolor="#666666"
     borderopacity="1"
     objecttolerance="10"
     gridtolerance="10"
     guidetolerance="10"
     inkscape:pageopacity="0"
     inkscape:pageshadow="2"
     inkscape:window-width="1920"
     inkscape:window-height="1015"
     id="namedview11"
     showgrid="false"
     inkscape:zoom="2.36"
     inkscape:cx="50"
     inkscape:cy="50"
     inkscape:window-x="0"
     inkscape:window-y="36"
     inkscape:window-maximized="1"
     inkscape:current-layer="svg9" />
  <!--Unicode Character 'SKULL AND CROSSBONES' (U+2620)-->
  <defs
     id="genericDefs" />
  <g
     id="g7"
     transform="matrix(0.49498564,0,0,0.49100517,-2.8760807,-87.426413)">
    <g
       id="g5">
      <path
         d="m 188.5781,201.7969 q 18.8438,6.3281 18.8438,17.5781 0,8.7188 -9.2813,13.5781 -9.2812,4.8438 -25.3125,4.8438 1.125,7.3125 1.125,12.0937 0,45.8438 -13.7812,65.6719 l 9.8437,10.8281 q 4.2188,4.6406 8.6406,5.4219 4.4376,0.7656 10.2032,0.7656 7.4531,0 11.6718,4.7813 4.2188,4.7812 4.2188,12.5156 0,4.6406 -8.0156,9.9844 -7.875,5.2031 -12.375,11.8125 -4.3594,6.1875 -7.4532,7.875 -3.0937,1.6875 -6.4687,1.6875 -6.6094,0 -11.1875,-5.7656 -4.5625,-5.7657 -4.5625,-16.0313 0,-9.2813 -5.7656,-15.8906 -1.6875,19.125 -10.125,28.125 -8.4375,9 -26.4375,9 -17.4375,0 -27.6406,-9.9063 -10.1876,-9.9218 -11.875,-28.9062 l -6.0469,9.9844 q 0,13.6406 -3.7969,21.6562 -3.7969,8.0156 -10.5469,8.0156 -7.0312,0 -10.8281,-4.6406 -3.7969,-4.6406 -6.75,-14.9062 -12.2344,-2.9532 -16.5312,-6.6094 -4.2813,-3.6563 -4.2813,-9.5625 0,-6.1875 4.7031,-10.2657 4.7188,-4.0781 11.1875,-4.0781 4.9219,0 11.25,1.6875 L 56.1094,314.7188 Q 42.8906,297 42.8906,283.3594 q 0,-31.7813 2.6719,-45.5625 l -16.4531,-14.625 q -16.1719,-2.3907 -19.2032,-4.9844 -3.0156,-2.6094 -3.0156,-6.8281 0,-11.3906 15.8906,-15.8906 0.7032,-18.4219 14.0626,-18.4219 4.3593,0 8.2968,3.375 3.9375,3.375 7.5938,19.9687 l 9.7031,9.8438 q 16.7344,-11.8125 44.7187,-11.8125 26.7188,0 46.6876,12.0937 0.8437,-16.7344 5.2656,-23.625 4.4375,-6.8906 14,-6.8906 11.1094,0 15.4687,21.7969 z M 56.6719,214.7344 q 1.9687,-1.5469 2.6719,-2.25 0,-0.1406 -5.0626,-4.6406 l -5.3437,-4.7813 q -3.5156,-16.5937 -6.2656,-19.125 -2.7344,-2.5313 -5.8281,-2.5313 -10.125,0 -10.125,17.2969 Q 11.25,202.5 11.25,211.3594 q 0,5.3437 6.8906,6.1875 l 12.6563,1.5469 15.8906,13.9218 q 1.5469,-7.3125 3.7187,-11.1718 2.1876,-3.875 6.2657,-7.1094 z m 115.5937,18.8437 q 30.7969,0 30.7969,-14.2031 0,-9.2812 -17.8594,-14.3438 -2.6719,-13.5 -5.3437,-17.1562 -2.6719,-3.6562 -6.75,-3.6562 -7.875,0 -11.25,5.9062 -3.375,5.9062 -4.0782,23.2031 11.1094,8.0157 14.4844,20.25 z m -3.2344,35.0157 q 0.5626,-11.25 0.5626,-18.7032 0,-14.7656 -5.4219,-24.1094 -5.4063,-9.3593 -21.2969,-16.25 -15.8906,-6.8906 -35.7188,-6.8906 -14.4843,0 -24.125,2.6094 -9.625,2.5938 -18,8.5 -8.3593,5.9062 -11.1718,10.2031 -2.8125,4.2813 -4.7188,16.1719 Q 47.25,252 47.25,262.2656 q 5.625,0 8.0781,-1.9687 2.4688,-1.9688 4.2188,-8.5 1.7656,-6.5469 1.7656,-12.1719 0,-2.3906 2.1094,-2.3906 2.25,0 2.25,2.3906 0,6.0469 -2.3281,13.5781 -2.3126,7.5157 -5.2657,10.125 -2.9531,2.5938 -10.8281,3.2969 v 16.7344 q 0,6.8906 3.375,14.7656 3.375,7.875 15.3281,21.7969 8.7188,9.9843 10.9688,14.625 0,19.4062 9.1406,30.5937 9.1406,11.1719 26.2969,11.1719 18.7031,0 25.875,-11.1094 7.1718,-11.1093 7.1718,-38.3906 20.8126,-18.9844 23.3438,-53.5781 -10.6875,-0.8438 -17.7188,-18.7032 Q 144,236.6719 144,235.8281 q 0,-2.25 2.5312,-2.25 0.5626,0 4.0782,8.8594 6.6094,16.5937 10.0468,21.1719 3.4532,4.5625 8.375,4.9844 z m -34.3124,-0.2813 q 7.3124,0 11.875,4.5781 4.5781,4.5625 4.5781,12.1563 0,6.8906 -4.2188,13.0781 -4.2187,6.1875 -10.125,6.1875 -5.625,0 -11.4687,-7.4531 -5.8282,-7.4532 -5.8282,-13.2188 0,-15.3281 15.1876,-15.3281 z m -56.6719,0 q 15.6093,0 15.6093,15.0469 0,7.1718 -3.875,13.7812 -3.8593,6.6094 -9.7656,6.6094 -6.8906,0 -13.5,-7.6562 -6.6094,-7.6719 -6.6094,-13.5782 0,-14.2031 18.1407,-14.2031 z m 28.8281,19.125 q 3.9375,0 4.3594,4.5 0.1406,3.5156 3.9375,10.125 4.3593,8.0156 4.3593,12.6563 0,4.6406 -4.3593,4.6406 -1.5469,0 -3.7969,-1.125 -1.9688,-0.8438 -3.375,-0.8438 -1.4062,0 -3.7969,0.5625 -2.25,0.5625 -3.6562,0.5625 -4.3594,0 -4.3594,-4.3594 0,-4.2187 3.2344,-9.5624 3.0937,-5.2032 3.375,-9.4219 0.4219,-7.7344 4.0781,-7.7344 z m 32.2031,59.2031 -0.2812,3.2344 -4.3594,1.125 -2.5313,4.3594 -1.125,-4.9219 -4.9218,1.125 -0.2813,5.4844 -4.9219,3.2343 0.5626,-8.1562 -6.6094,0.2812 1.6875,8.4376 -7.4531,-0.5626 0.8437,-9 -6.6094,1.125 -0.2812,7.5938 -4.6407,-0.8438 V 351 l -5.7656,-0.8438 0.7032,5.4844 -2.9532,-1.125 -1.125,-5.4844 h -4.9218 v -4.3593 l 4.9218,-0.5625 -0.5625,-3.5156 3.0938,-1.4063 0.8437,4.9219 7.0313,0.5625 -0.7031,-8.0157 h 4.0781 v 8.8594 l 6.6093,-1.125 -0.5624,-9.4218 5.7656,1.4062 -0.5625,8.2969 7.7343,0.2812 -1.4062,-9.4219 4.6406,1.4063 v 7.7344 l 4.9219,-0.5625 v -6.0469 l 4.5,7.1719 z M 72.2812,334.9688 q -1.9687,-4.3594 -12.9374,-16.7344 l -17.0157,19.8281 q -5.7656,-2.25 -12.375,-2.25 -4.7812,0 -8.1562,2.75 -3.375,2.7344 -3.375,7.2344 0,3.6562 2.6719,6.4062 2.6718,2.7344 17.1562,5.9688 2.8125,10.4062 5.7656,14.7656 2.9532,4.3594 8.4375,4.3594 10.2657,0 10.2657,-26.5781 z m 76.9219,1.9687 q 9.7031,10.9687 9.7031,22.5 0,8.1563 3.375,12.875 3.375,4.7031 8.1563,4.7031 6.1875,0 11.5313,-9.4218 2.3906,-4.0782 4.2187,-5.6876 1.8281,-1.625 6.75,-4.1562 7.4531,-3.9375 7.4531,-7.875 0,-5.9062 -3.0312,-9.4219 -3.0156,-3.5156 -8.5,-3.5156 -9.7032,0 -13.9219,-1.6875 -4.2187,-1.6875 -9.8437,-7.7344 L 157.5,319.3594 q -2.8125,4.3594 -7.7344,9.1406 0,3.375 -0.5625,8.4375 z"
         id="path3"
         inkscape:connector-curvature="0"
         style="stroke:none" />
    </g>
  </g>
</svg>
